HIERARCHY
ROOT Hips
{
	OFFSET -0.001795 -0.223333 0.028219
	CHANNELS 6 Xposition Yposition Zposition Zrotation Yrotation Xrotation 
	JOINT LeftUpLeg
	{
		OFFSET 0.069520 -0.091406 -0.006815
		CHANNELS 3 Zrotation Yrotation Xrotation
		JOINT LeftLeg
		{
			OFFSET 0.034277 -0.375199 -0.004496
			CHANNELS 3 Zrotation Yrotation Xrotation
			JOINT LeftFoot
			{
				OFFSET -0.013596 -0.397961 -0.043693
				CHANNELS 3 Zrotation Yrotation Xrotation
				JOINT LeftToe
				{
					OFFSET 0.026358 -0.055791 0.119288
					CHANNELS 3 Zrotation Yrotation Xrotation
					End Site
					{
						OFFSET 0.000000 0.000000 0.000000
					}
				}
			}
		}
	}
	JOINT RightUpLeg
	{
		OFFSET -0.067670 -0.090522 -0.004320
		CHANNELS 3 Zrotation Yrotation Xrotation
		JOINT RightLeg
		{
			OFFSET -0.038290 -0.382569 -0.008850
			CHANNELS 3 Zrotation Yrotation Xrotation
			JOINT RightFoot
			{
				OFFSET 0.015774 -0.398415 -0.042312
				CHANNELS 3 Zrotation Yrotation Xrotation
				JOINT RightToe
				{
					OFFSET -0.025372 -0.048144 0.123348
					CHANNELS 3 Zrotation Yrotation Xrotation
					End Site
					{
						OFFSET 0.000000 0.000000 0.000000
					}
				}
			}
		}
	}
	JOINT Spine
	{
		OFFSET -0.002533 0.108963 -0.026696
		CHANNELS 3 Zrotation Yrotation Xrotation
		JOINT Spine1
		{
			OFFSET 0.005487 0.135180 0.001092
			CHANNELS 3 Zrotation Yrotation Xrotation
			JOINT Spine2
			{
				OFFSET 0.001457 0.052922 0.025425
				CHANNELS 3 Zrotation Yrotation Xrotation
				JOINT Neck
				{
					OFFSET -0.002778 0.213870 -0.042857
					CHANNELS 3 Zrotation Yrotation Xrotation
					JOINT Head
					{
						OFFSET 0.005152 0.064970 0.051349
						CHANNELS 3 Zrotation Yrotation Xrotation
						End Site
						{
							OFFSET 0.000000 0.000000 0.000000
						}
					}
				}
				JOINT LeftShoulder
				{
					OFFSET 0.078845 0.121749 -0.034090
					CHANNELS 3 Zrotation Yrotation Xrotation
					JOINT LeftArm
					{
						OFFSET 0.090977 0.030469 -0.008868
						CHANNELS 3 Zrotation Yrotation Xrotation
						JOINT LeftForeArm
						{
							OFFSET 0.259612 -0.012772 -0.027456
							CHANNELS 3 Zrotation Yrotation Xrotation
							JOINT LeftHand
							{
								OFFSET 0.249234 0.008986 -0.001171
								CHANNELS 3 Zrotation Yrotation Xrotation
								End Site
								{
									OFFSET 0.000000 0.000000 0.000000
								}
							}
						}
					}
				}
				JOINT RightShoulder
				{
					OFFSET -0.081759 0.118833 -0.038615
					CHANNELS 3 Zrotation Yrotation Xrotation
					JOINT RightArm
					{
						OFFSET -0.096012 0.032551 -0.009143
						CHANNELS 3 Zrotation Yrotation Xrotation
						JOINT RightForeArm
						{
							OFFSET -0.253742 -0.013329 -0.021401
							CHANNELS 3 Zrotation Yrotation Xrotation
							JOINT RightHand
							{
								OFFSET -0.255298 0.007772 -0.005559
								CHANNELS 3 Zrotation Yrotation Xrotation
								End Site
								{
									OFFSET 0.000000 0.000000 0.000000
								}
							}
						}
					}
				}
			}
		}
	}
}
MOTION
Frames: 8
Frame Time: 0.050000
-0.923551 0.896048 1.197751 175.980405 66.158054 -176.146300 16.027693 -14.445913 -38.803022 -16.111460 -7.476558 23.471924 15.151771 20.641320 23.409942 0.000000 0.000000 0.000000 6.015882 -14.686415 -36.345356 -24.911823 -11.893855 44.158174 16.806317 20.676373 -2.415736 0.000000 0.000000 0.000000 -25.114333 -21.820503 57.658782 1.083184 1.724511 -26.198716 15.021484 38.825731 37.451726 11.026307 8.573381 -48.029703 0.000000 0.000000 0.000000 -20.631482 -21.938585 -29.092411 -34.639267 23.721473 -4.177832 -48.441983 -57.147982 20.975875 0.000000 0.000000 0.000000 33.578234 -8.575232 28.773651 37.472408 34.014136 -2.757203 -59.192190 58.908713 -25.113292 0.000000 0.000000 0.000000 
-0.926195 0.892690 1.182787 176.853966 68.812876 -175.241770 16.426436 -14.019814 -38.576895 -17.990996 -7.682883 24.514908 16.597518 22.797921 23.493955 0.000000 0.000000 0.000000 5.918572 -14.408060 -36.734513 -25.438812 -11.577263 45.515301 15.999404 20.844249 -3.593225 0.000000 0.000000 0.000000 -26.292376 -21.206566 58.484453 1.365456 1.428202 -27.804730 15.539366 40.233174 38.306220 11.177549 8.548521 -48.103001 0.000000 0.000000 0.000000 -20.920574 -22.176189 -28.535177 -34.371496 22.437323 -3.719868 -46.681391 -57.351343 20.128095 0.000000 0.000000 0.000000 35.394921 -9.055519 29.364233 36.557766 34.642657 -3.508831 -62.429057 58.785873 -27.232305 0.000000 0.000000 0.000000 
-0.929244 0.889904 1.167270 176.793564 70.020995 -175.109150 15.756300 -14.335405 -39.368082 -19.339753 -7.924605 25.374764 19.051893 25.725221 24.959729 0.000000 0.000000 0.000000 4.661540 -15.000966 -36.724580 -24.837507 -11.472638 45.842236 14.852037 19.829743 -5.432434 0.000000 0.000000 0.000000 -25.769643 -21.115184 58.633861 0.852588 1.293377 -28.926241 14.908553 39.984028 38.342852 11.187798 8.400215 -48.407823 0.000000 0.000000 0.000000 -20.421783 -22.569084 -27.124915 -35.545927 20.396696 -3.560635 -43.934215 -58.709443 18.340581 0.000000 0.000000 0.000000 36.646433 -9.738460 29.380042 36.922284 35.290605 -3.887921 -65.392172 59.978999 -29.171704 0.000000 0.000000 0.000000 
-0.932566 0.887007 1.152092 178.931396 72.085254 -172.812319 16.483236 -14.436866 -40.058545 -21.619010 -8.150010 26.630441 20.880882 28.448528 25.467980 0.000000 0.000000 0.000000 4.635365 -14.719332 -37.064908 -24.282053 -11.170351 46.097204 13.652426 18.939798 -7.244690 0.000000 0.000000 0.000000 -26.443232 -20.309669 58.582124 1.368888 1.236027 -29.343251 15.072754 41.043074 38.638384 11.236280 8.455512 -48.235608 0.000000 0.000000 0.000000 -20.009489 -23.155550 -25.998342 -36.595173 19.665252 -3.712355 -44.524670 -60.061997 18.662806 0.000000 0.000000 0.000000 38.320908 -9.810679 30.433300 34.996397 35.774249 -4.787477 -68.301412 59.228925 -31.408545 0.000000 0.000000 0.000000 
-0.935438 0.883317 1.137102 -179.332125 72.557885 -170.192741 17.805726 -15.400265 -42.007394 -24.616031 -8.456377 27.160562 25.770388 33.018697 28.722846 0.000000 0.000000 0.000000 4.332239 -15.250019 -37.617464 -23.504096 -11.067357 45.994567 12.298863 17.185632 -8.840730 0.000000 0.000000 0.000000 -26.058768 -20.310932 58.583257 1.483206 0.953615 -30.787674 15.653425 40.910988 39.292710 11.543189 8.219406 -49.149060 0.000000 0.000000 0.000000 -19.183904 -22.304017 -25.408270 -38.654102 18.142685 -4.112978 -45.258140 -60.849195 18.597005 0.000000 0.000000 0.000000 38.554673 -10.266302 30.148603 35.300830 35.993845 -4.775897 -67.004594 60.164462 -30.987318 0.000000 0.000000 0.000000 
-0.936926 0.877897 1.121798 -174.810807 74.187751 -165.112288 19.732969 -15.736234 -43.307139 -28.020969 -8.682811 28.973967 28.941397 36.927526 29.837551 0.000000 0.000000 0.000000 5.057446 -15.149803 -38.802089 -24.066057 -10.820385 47.480153 10.532857 15.509028 -9.850202 0.000000 0.000000 0.000000 -26.441516 -19.556662 58.111343 2.265214 0.880505 -30.748643 15.727136 41.933512 39.110184 11.909595 7.968533 -49.765220 0.000000 0.000000 0.000000 -18.548380 -22.162808 -24.610953 -39.396701 17.614156 -4.407108 -45.834610 -61.335445 18.627834 0.000000 0.000000 0.000000 39.111797 -10.061763 30.699343 34.057254 35.969666 -5.135653 -65.389161 59.395237 -30.416375 0.000000 0.000000 0.000000 
-0.936258 0.872472 1.105659 -172.531449 74.836416 -162.388059 20.861729 -16.509979 -45.189695 -30.790644 -8.827076 30.826584 31.798610 40.671550 31.148372 0.000000 0.000000 0.000000 4.374375 -15.691541 -39.191146 -23.865070 -11.181123 48.931171 9.450176 14.299008 -10.599304 0.000000 0.000000 0.000000 -26.688210 -19.635369 58.804977 2.914971 0.390169 -32.771301 17.461574 42.943094 41.175130 12.455787 7.772126 -50.829822 0.000000 0.000000 0.000000 -19.308032 -21.849202 -25.748091 -38.535515 18.059945 -4.169392 -48.150812 -60.987326 20.682030 0.000000 0.000000 0.000000 39.050468 -10.646089 30.218146 34.261492 35.787602 -5.097123 -61.113066 60.230968 -28.202764 0.000000 0.000000 0.000000 
-0.933027 0.866908 1.088469 -168.428247 75.985207 -158.375590 21.493800 -16.648337 -46.054421 -34.408349 -8.911966 33.167911 33.228328 43.566900 30.594895 0.000000 0.000000 0.000000 4.019550 -15.967571 -39.804232 -25.398724 -11.359188 52.167550 9.256140 15.236751 -10.319873 0.000000 0.000000 0.000000 -27.396477 -19.049957 58.670040 3.659434 0.310208 -32.394639 18.105827 44.294767 41.221777 12.421861 7.811867 -50.689873 0.000000 0.000000 0.000000 -19.193361 -22.069658 -25.496518 -38.758586 18.056541 -4.277239 -50.563042 -61.553456 22.284956 0.000000 0.000000 0.000000 39.066010 -10.865849 30.064198 34.231691 35.178158 -5.305898 -57.925493 59.479399 -25.940874 0.000000 0.000000 0.000000 
